<svg width="140" height="40" viewBox="0 0 140 40" fill="none" xmlns="http://www.w3.org/2000/svg">
<path fill-rule="evenodd" clip-rule="evenodd" d="M0 0.228104C0 0.353737 0.565809 0.863316 1.25735 1.36081L2.51471 2.26517V16.7217C2.51471 24.6726 2.44455 31.3614 2.35879 31.5852C2.27304 31.809 1.70723 32.3334 1.10144 32.7509C0.495649 33.1681 0 33.6172 0 33.7491C0 33.8926 1.89232 33.9855 4.71507 33.9808L9.43015 33.9727L6.77965 31.597L6.78468 28.2029C6.78971 24.8904 6.81184 24.7529 7.71462 22.4696C8.22309 21.1831 8.72125 20.2178 8.82134 20.3248C9.0454 20.564 12.0706 30.6144 12.0706 31.1192C12.0706 31.3191 11.6179 31.9739 11.0647 32.5749C10.5115 33.1759 10.0588 33.7398 10.0588 33.8282C10.0588 33.9166 12.0673 33.9871 14.5224 33.9848L18.986 33.9805L15.8542 31.0935L14.7445 27.4428C12.1005 18.7455 10.9815 14.9636 10.9812 14.7247C10.981 14.5842 12.0371 11.8848 13.3284 8.72581C15.6719 2.99127 15.6782 2.98019 17.1422 1.70498C17.949 1.0028 18.6088 0.331833 18.6088 0.214005C18.6088 0.0964291 16.6851 0 14.3338 0C11.9466 0 10.0588 0.100709 10.0588 0.228104C10.0588 0.353737 10.6309 0.867848 11.33 1.37063C12.7702 2.40641 12.7634 2.14583 11.4354 5.41303C8.23088 13.2977 7.02106 16.2175 6.91343 16.325C6.84528 16.3932 6.78971 13.2599 6.78971 9.36228V2.27574L8.04706 1.33589C8.7386 0.819005 9.30441 0.306903 9.30441 0.198139C9.30441 0.089123 7.21092 0 4.65221 0C2.03943 0 0 0.0999538 0 0.228104ZM114.393 9.12688C113.245 9.88873 112.435 11.6201 111.731 14.8156C111.125 17.5667 110.646 18.6309 110.013 18.6309C109.698 18.6309 109.641 17.8834 109.641 13.7214V8.81192H106.749C105.159 8.81192 103.857 8.89853 103.857 9.00427C103.857 9.11001 104.31 9.47659 104.863 9.81899L105.869 10.4414V32.4112L104.863 33.0777C104.31 33.4442 103.857 33.7992 103.857 33.8665C103.857 33.9337 105.583 33.9845 107.692 33.9793L111.527 33.9699L109.641 32.3523V27.212C109.641 24.3848 109.707 22.137 109.786 22.2171C110.116 22.5477 114.419 32.0827 114.419 32.484C114.419 32.7239 114.249 33.0611 114.042 33.2335C113.834 33.406 113.665 33.6464 113.665 33.7678C113.665 33.8894 115.164 33.9876 116.997 33.9861L120.329 33.9833L119.038 32.7901C117.886 31.7252 117.538 31.1234 115.799 27.1911C114.727 24.7678 113.467 21.9419 112.997 20.9117C112.172 19.0989 112.157 19.0111 112.539 18.2049C112.756 17.7464 113.149 16.2426 113.412 14.8629C114.026 11.6365 114.692 10.3225 115.715 10.3225C116.206 10.3225 116.354 10.9399 115.928 11.2037C115.79 11.2893 115.676 11.7994 115.676 12.3372C115.676 13.0625 115.821 13.4165 116.235 13.7071C117.088 14.3048 118.361 14.2038 119.083 13.481C119.919 12.6438 119.97 10.4555 119.173 9.5992C118.064 8.40733 115.814 8.18501 114.393 9.12688ZM17.1 8.97028C17.1 9.05739 17.4767 9.54607 17.9374 10.0564L18.7745 10.9842L20.5673 22.0459C21.5533 28.1299 22.4226 33.7308 22.4991 34.4924C22.6751 36.2472 22.4043 37.222 21.5661 37.8484C20.9812 38.2855 20.8127 38.3054 20.1212 38.0186C19.6907 37.8401 18.9973 37.1979 18.5807 36.5916C17.698 35.3071 17.2843 35.3539 17.6485 36.6973C18.59 40.1715 22.4319 41.1768 24.1356 38.3948C24.918 37.1171 24.9182 37.1153 28.5417 12.9905C28.8673 10.8225 28.9141 10.7178 29.9675 9.7913L31.0566 8.83331L27.7246 8.82274C25.8922 8.8167 24.3926 8.88493 24.3926 8.97406C24.3926 9.06318 24.7978 9.48817 25.2932 9.91819L26.1934 10.7002L25.356 17.5604C24.8953 21.3336 24.4465 24.4208 24.3587 24.4211C24.2709 24.4213 24.1198 23.7703 24.0227 22.9739C23.9257 22.1776 23.5165 19.3983 23.1137 16.7978C22.2222 11.0449 22.2187 10.8059 23.0096 9.86482C23.3553 9.45343 23.6382 9.04832 23.6382 8.96449C23.6382 8.88065 22.1671 8.81192 20.3691 8.81192C18.5711 8.81192 17.1 8.88317 17.1 8.97028ZM34.8752 9.06796C32.109 9.89931 30.3837 13.8259 32.0512 15.4951C33.3048 16.7504 35.2059 15.9883 35.2059 14.2307C35.2059 13.5749 35.0482 13.2519 34.5772 12.9429C33.7934 12.4288 33.7599 11.5252 34.499 10.8359C35.564 9.84241 37.3218 10.3306 38.0993 11.8359C38.5401 12.6897 38.5947 15.2935 38.2014 16.7117C37.8602 17.9421 36.3594 19.5655 35.1951 19.963C34.113 20.3326 33.985 20.7108 34.8626 20.9459C36.0586 21.2659 37.4387 22.4377 38.0261 23.6315C38.78 25.1638 38.8313 28.5952 38.1204 29.9605C37.0514 32.0142 35.7423 32.6245 34.0901 31.8395C33.1599 31.3976 32.7757 30.9172 32.2966 29.598C32.1488 29.1911 31.8779 28.8079 31.6943 28.7467C31.1026 28.5491 31.546 30.8651 32.3117 31.9716C33.3317 33.445 34.834 34.0878 36.8751 33.9236C39.081 33.7464 40.5401 32.8319 41.5917 30.9676C42.3139 29.6871 42.3728 29.4028 42.3715 27.1911C42.3705 25.0739 42.2916 24.6492 41.6838 23.4931C40.9942 22.1814 39.843 21.1035 38.7893 20.7833C37.998 20.5426 38.0759 20.3729 39.3722 19.5121C41.472 18.1181 42.5088 15.8111 42.1706 13.2858C41.7635 10.2478 38.0651 8.10923 34.8752 9.06796ZM44.0074 9.00074C44.0074 9.10472 44.4034 9.50604 44.8875 9.89276L45.7676 10.5957V21.3931C45.7676 33.0485 45.8421 32.372 44.4502 33.3481C44.1542 33.5555 43.9747 33.7882 44.0514 33.8649C44.1278 33.9417 45.6487 33.9725 47.4309 33.9337L50.6713 33.8629L48.5338 32.4112L48.5509 24.5769C48.5607 19.9859 48.657 16.9511 48.7833 17.2462C48.9462 17.6266 51.7398 29.0655 52.7341 33.4223C52.8307 33.8461 53.0429 33.9888 53.5756 33.9888C53.9674 33.9888 54.3393 33.904 54.4019 33.8C54.4645 33.696 55.3482 29.8452 56.3656 25.2424C57.3831 20.6395 58.3002 16.8726 58.404 16.871C58.5079 16.8698 58.5926 20.3734 58.5926 24.6573V32.446L57.5868 33.012C57.0335 33.3234 56.5809 33.6703 56.5809 33.7834C56.5809 33.8964 58.3067 33.985 60.4158 33.9803L64.2507 33.972L62.3647 32.4294V10.4484L64.2507 8.82098L57.498 8.9378L56.9279 11.5814C56.6143 13.0353 55.8813 16.5193 55.2986 19.3233C54.7162 22.1272 54.1653 24.4216 54.0745 24.4216C53.9837 24.4216 53.2009 21.3344 52.3348 17.5609C51.4687 13.7874 50.651 10.2754 50.5174 9.75605L50.2748 8.81192H47.1409C45.4176 8.81192 44.0074 8.89676 44.0074 9.00074ZM65.8853 8.93427C65.8853 9.0015 66.3379 9.35649 66.8912 9.72307L67.8971 10.3895V21.7909C67.8971 28.0617 67.9657 33.3715 68.0497 33.5905C68.1621 33.8841 68.5511 33.9888 69.5281 33.9888C70.7407 33.9888 70.877 33.9297 71.1257 33.2965C71.5987 32.093 75.9962 19.0345 76.1282 18.4421C76.4755 16.8821 76.5673 18.5121 76.5099 25.2159C76.441 33.2542 76.5648 32.5318 75.0853 33.5346C74.5175 33.9196 75.2787 33.9996 78.8639 33.9329L82.6081 33.8629L80.4744 32.6041L80.4706 10.3895L81.4765 9.72307C82.0297 9.35649 82.4824 9.0015 82.4824 8.93427C82.4824 8.86705 81.2504 8.81192 79.7443 8.81192H77.0066L75.5056 13.1549C74.6802 15.5437 73.5642 18.8255 73.0256 20.4479C72.4869 22.0703 71.9679 23.4017 71.8721 23.4062C71.776 23.4107 71.6887 20.533 71.6779 17.0113L71.6581 10.6083L72.5437 9.93204C73.0308 9.55992 73.4294 9.15584 73.4294 9.03373C73.4294 8.91187 71.732 8.81192 69.6574 8.81192C67.5827 8.81192 65.8853 8.86705 65.8853 8.93427ZM84.7456 9.00427C84.7456 9.11001 85.1982 9.47659 85.7515 9.81899L86.7574 10.4414V32.446L85.7515 33.012C85.1982 33.3234 84.7456 33.6703 84.7456 33.7834C84.7456 33.8964 86.4714 33.9845 88.5805 33.9793L92.4154 33.9699L90.5294 32.3523V22.6592H95.8103V27.4249C95.8103 32.5029 95.8309 32.4097 94.4928 33.3481C94.1969 33.5555 94.0168 33.7879 94.093 33.8642C94.1692 33.9402 95.9164 33.9712 97.9757 33.9329L101.72 33.8629L99.5824 32.4719V10.3895L101.72 8.9378L97.9757 8.86781C95.9164 8.82954 94.1687 8.86101 94.092 8.9378C94.015 9.01459 94.3704 9.42271 94.8814 9.84417L95.8103 10.6111V20.1415H90.5294V10.4484L92.4154 8.8308L88.5805 8.82148C86.4714 8.81619 84.7456 8.89853 84.7456 9.00427ZM120.464 9.00074C120.469 9.10472 120.921 9.49925 121.467 9.87766L122.461 10.566L122.592 33.8629H125.358L127.999 26.0153C129.451 21.6992 130.724 18.0831 130.828 17.9798C130.931 17.8764 131.016 21.0678 131.016 25.0719V32.3523L129.13 33.9699L132.965 33.9793C135.074 33.9845 136.8 33.9337 136.8 33.8665C136.8 33.7992 136.347 33.4442 135.794 33.0777L134.788 32.4112V10.4414L135.794 9.81899C136.347 9.47659 136.8 9.10624 136.8 8.99571C136.8 8.88518 135.584 8.82702 134.097 8.8663L131.393 8.9378L130.174 12.4626C129.504 14.4012 128.372 17.6868 127.66 19.7639L126.364 23.5404L126.23 10.5093L128.124 8.83282L124.289 8.82249C122.18 8.8167 120.459 8.89676 120.464 9.00074Z" fill="#3F3F3F"/>
</svg>
